<svg xmlns="http://www.w3.org/2000/svg" viewBox="0 0 1080 1080">
<defs><style>.cls-1{fill:#cedce0;}.cls-2{fill:#3b5269;}</style></defs>
<g id="Layer_3" data-name="Layer 3"><rect class="cls-1" y="0.4" width="1080" height=""/>
<path class="cls-2" d="M394.76,449.72v99.47H376V449.72H345.34V433.8h79.92v15.92Z"/>
<path class="cls-2" d="M493.91,514.35H434.17q.63,10.49,6.22,16.35t14.9,5.88q8.28,0,13.79-3.47t9.62-11.2l14.42,8q-6.3,11.28-15.61,16.79t-21.83,5.52q-18,0-28.61-11t-10.64-29.24q0-17.56,11-28.88t28.25-11.31q18,0,28.14,10.32t10.09,28.93Zm-17.74-11.51q-1-8-6.14-12.25t-14-4.22q-8.43,0-13.56,4.1t-7.17,12.37Z"/>
<path class="cls-2" d="M567.52,495.75a26.75,26.75,0,0,0-9.18-6.62A28.05,28.05,0,0,0,547,486.84q-10.49,0-16.79,6.78t-6.3,18q0,11.67,6.34,18.32t17.54,6.67a25.56,25.56,0,0,0,11.11-2.33,24,24,0,0,0,8.59-7v19.7a40,40,0,0,1-10.13,4,47.61,47.61,0,0,1-11.46,1.34q-17.58,0-28.65-11.19t-11.08-29q0-18,11.47-29.12t30-11.07A47.19,47.19,0,0,1,558.38,473a35.05,35.05,0,0,1,9.14,3.51Z"/>
<path class="cls-2" d="M585,549.19V427H601.1v59.67a32.15,32.15,0,0,1,12-11.27q6.95-3.56,16.87-3.55a34.6,34.6,0,0,1,14.23,2.64,20.65,20.65,0,0,1,9.18,7.84,21.49,21.49,0,0,1,2.84,7.17q.86,4.11.86,14.35v45.32H639.87V510.8q0-14.73-3.59-19.58t-12.72-4.85a24.77,24.77,0,0,0-10.68,2.21,17.66,17.66,0,0,0-7.37,6.22,17.06,17.06,0,0,0-2.64,6.9,85.28,85.28,0,0,0-.75,13.44v34.05Z"/>
<path class="cls-2" d="M679.91,549.19V474.47H696v12.22a32.1,32.1,0,0,1,12.06-11.27q6.93-3.56,16.86-3.55a34.6,34.6,0,0,1,14.23,2.64,20.65,20.65,0,0,1,9.18,7.84,21.49,21.49,0,0,1,2.84,7.17q.86,4.11.86,14.35v45.32H734.76V510.8q0-14.73-3.58-19.58t-12.73-4.85a24.84,24.84,0,0,0-10.68,2.21,17.66,17.66,0,0,0-7.37,6.22,17.06,17.06,0,0,0-2.64,6.9,85.28,85.28,0,0,0-.75,13.44v34.05Z"/>
<path class="cls-2" d="M845.11,549.19H828v-9.7a28.36,28.36,0,0,1-24.67,12.77q-15.84,0-24.94-10.84t-9.11-29.67q0-17.89,9.31-28.89t24.27-11a30.31,30.31,0,0,1,15.64,3.82,22.37,22.37,0,0,1,9.5,11V474.47h17.11Zm-16.64-37.6q0-11.58-5.39-18T808,487.08q-9.69,0-15.25,6.66t-5.55,18.48q0,11.89,5.36,18.37t15.13,6.46a18.55,18.55,0,0,0,15-7Q828.47,523,828.47,511.59Z"/>
<path class="cls-2" d="M924.55,495.75a26.75,26.75,0,0,0-9.18-6.62,28.09,28.09,0,0,0-11.31-2.29q-10.48,0-16.79,6.78t-6.3,18q0,11.67,6.34,18.32t17.54,6.67A25.56,25.56,0,0,0,916,534.25a24,24,0,0,0,8.59-7v19.7a40,40,0,0,1-10.13,4A47.61,47.61,0,0,1,903,552.26q-17.58,0-28.65-11.19t-11.08-29q0-18,11.47-29.12t30-11.07A47.19,47.19,0,0,1,915.41,473a35.19,35.19,0,0,1,9.14,3.51Z"/>
<path class="cls-2" d="M954.9,584.34H937.32l20.49-41.62-27.43-68.25H949.3L963,513.17c.79,2.36,1.49,4.77,2.09,7.21s1.09,4.92,1.46,7.45a89.7,89.7,0,0,1,4.89-12.53l.39-.95,18.44-39.88h18.52Z"/>
<path class="cls-2" d="M369.71,629.7l4-2.12a11,11,0,0,0,3.85,5.83,10.55,10.55,0,0,0,6.56,2.07,9.92,9.92,0,0,0,7.55-2.85q2.72-2.86,2.72-7.9a9.9,9.9,0,0,0-1.83-6.13c-1.22-1.63-3.84-3.5-7.85-5.64-5.13-2.71-8.54-5.11-10.23-7.17a11.35,11.35,0,0,1-2.54-7.45,11.5,11.5,0,0,1,3.67-8.84,13.45,13.45,0,0,1,9.52-3.41,13.2,13.2,0,0,1,6.66,1.62,12.17,12.17,0,0,1,4.62,4.85l-3.59,2.16a7.77,7.77,0,0,0-3.15-3.34,9.58,9.58,0,0,0-4.82-1.15,8.17,8.17,0,0,0-6,2.21,8,8,0,0,0-2.22,6q0,5.37,8.84,10l2.43,1.29q6.51,3.59,8.71,6.77a14.3,14.3,0,0,1,2.19,8.27q0,6.85-4,10.87t-10.9,4a14.62,14.62,0,0,1-8.58-2.49A16.14,16.14,0,0,1,369.71,629.7Z"/>
<path class="cls-2" d="M411.39,607.39H416l8.85,24.15,8.14-24.15h4.56l-16,46.4H417.1l5.4-15.74Z"/>
<path class="cls-2" d="M447.94,632.76l4.07-2.33a7.58,7.58,0,0,0,7.62,5.19,6.4,6.4,0,0,0,4.32-1.38,4.61,4.61,0,0,0,1.6-3.67q0-3.54-6.3-6-.66-.24-1.05-.42-4.87-1.9-6.82-4a7,7,0,0,1-1.95-5,8.3,8.3,0,0,1,2.79-6.45,10.26,10.26,0,0,1,7.2-2.53,12,12,0,0,1,6.41,1.64,9.46,9.46,0,0,1,3.86,4.66l-3.93,2.19a6.29,6.29,0,0,0-2.44-3.34,7.36,7.36,0,0,0-4.18-1.15,5.27,5.27,0,0,0-3.67,1.31,4.22,4.22,0,0,0-1.44,3.26,4,4,0,0,0,1.42,3.16c.95.84,2.93,1.75,5.92,2.75,3.39,1.19,5.67,2.47,6.84,3.87a8.69,8.69,0,0,1,1.76,5.77,8.41,8.41,0,0,1-3,6.79,12.29,12.29,0,0,1-8.15,2.54,12.42,12.42,0,0,1-6.76-1.79A10,10,0,0,1,447.94,632.76Z"/>
<path class="cls-2" d="M486.7,611.05H481v-3.66h5.67V594.72h4.21v12.67h6.2v3.66h-6.2v27.21H486.7Z"/>
<path class="cls-2" d="M537.13,623H512.59q.18,6,3,9.4a9.32,9.32,0,0,0,7.56,3.41,10,10,0,0,0,6-1.85,13.48,13.48,0,0,0,4.28-5.57l3.94,2.16a17.07,17.07,0,0,1-5.8,6.91,15.21,15.21,0,0,1-8.4,2.21,14.26,14.26,0,0,1-11-4.54Q508,630.53,508,623.16q0-7.59,4.16-12.25A13.89,13.89,0,0,1,523,606.24a13.13,13.13,0,0,1,10.27,4.3q3.86,4.31,3.86,11.47Zm-5.08-3.66a8.85,8.85,0,0,0-9.61-8.91,9.24,9.24,0,0,0-6.52,2.44,9.85,9.85,0,0,0-3,6.47Z"/>
<path class="cls-2" d="M557.45,638.26h-4.28V607.39h4.28v4.84a11.18,11.18,0,0,1,4-4.46,10.84,10.84,0,0,1,5.77-1.53,10.38,10.38,0,0,1,5.77,1.55,10,10,0,0,1,3.67,4.54,11.79,11.79,0,0,1,10.75-6.09,10.11,10.11,0,0,1,7.73,3q2.82,3,2.82,8.16v20.88h-4.28V619.09q0-4.53-1.87-6.83A6.72,6.72,0,0,0,586.3,610c-2.94,0-5.11,1-6.49,2.89s-2.07,5-2.07,9.15v16.25H573.5V619.09c0-3.16-.6-5.47-1.78-6.93s-3-2.19-5.5-2.19q-4.51,0-6.65,2.92T557.45,622Z"/>
<path class="cls-2" d="M613,632.76l4.07-2.33a7.58,7.58,0,0,0,7.62,5.19,6.4,6.4,0,0,0,4.32-1.38,4.58,4.58,0,0,0,1.6-3.67q0-3.54-6.3-6c-.44-.16-.79-.3-1-.42-3.26-1.27-5.53-2.59-6.83-4a7,7,0,0,1-2-5,8.3,8.3,0,0,1,2.79-6.45,10.27,10.27,0,0,1,7.2-2.53,12,12,0,0,1,6.41,1.64,9.46,9.46,0,0,1,3.86,4.66l-3.93,2.19a6.29,6.29,0,0,0-2.44-3.34,7.33,7.33,0,0,0-4.17-1.15,5.3,5.3,0,0,0-3.68,1.31,4.22,4.22,0,0,0-1.44,3.26,4,4,0,0,0,1.43,3.16c1,.84,2.92,1.75,5.91,2.75,3.39,1.19,5.67,2.47,6.84,3.87a8.69,8.69,0,0,1,1.76,5.77,8.41,8.41,0,0,1-3,6.79,12.28,12.28,0,0,1-8.14,2.54,12.45,12.45,0,0,1-6.77-1.79A10,10,0,0,1,613,632.76Z"/><rect class="cls-2" x="82.17" y="445.23" width="80.46" height="64.37" transform="translate(-301.73 226.38) rotate(-45)"/>
<polygon class="cls-2" points="298.77 596.89 241.88 653.79 184.98 596.89 128.09 653.79 71.2 596.89 184.98 483.11 298.77 596.89"/></g>
</svg>